{
    "asset" : {
        "generator" : "Khronos glTF Blender I/O v1.8.19",
        "version" : "2.0"
    },
    "scene" : 0,
    "scenes" : [
        {
            "name" : "Scene",
            "nodes" : [
                0,
                1,
                2,
                3
            ]
        }
    ],
    "nodes" : [
        {
            "mesh" : 0,
            "name" : "Knife_Block_Small",
            "scale" : [
                0.08666666597127914,
                0.18518520891666412,
                0.08661159873008728
            ],
            "translation" : [
                -1.6979269981384277,
                -21.33346939086914,
                6.327751159667969
            ]
        },
        {
            "mesh" : 1,
            "name" : "Male_young:Body",
            "rotation" : [
                0.7071068286895752,
                0,
                0,
                0.7071067094802856
            ],
            "translation" : [
                9.677748680114746,
                3.413769006729126,
                -1.5862499475479126
            ]
        },
        {
            "mesh" : 2,
            "name" : "Female_child:Body",
            "rotation" : [
                0.7071068286895752,
                0,
                0,
                0.7071067094802856
            ],
            "translation" : [
                9.677748680114746,
                3.413769006729126,
                -1.5862499475479126
            ]
        },
        {
            "mesh" : 3,
            "name" : "Female_old:Body",
            "rotation" : [
                0.7071068286895752,
                0,
                0,
                0.7071067094802856
            ],
            "translation" : [
                9.677748680114746,
                3.413769006729126,
                -1.5862499475479126
            ]
        }
    ],
    "materials" : [
        {
            "doubleSided" : true,
            "name" : "Material.002",
            "pbrMetallicRoughness" : {
                "baseColorFactor" : [
                    0.4564109146595001,
                    0.34543129801750183,
                    0.019059980288147926,
                    1
                ],
                "metallicFactor" : 0,
                "roughnessFactor" : 0.5
            }
        },
        {
            "doubleSided" : true,
            "name" : "Male_young:Body:Defaultskin.001",
            "pbrMetallicRoughness" : {
                "baseColorFactor" : [
                    0.4564109146595001,
                    0.187820702791214,
                    0.016807429492473602,
                    1
                ],
                "metallicFactor" : 0,
                "roughnessFactor" : 0.5
            }
        },
        {
            "doubleSided" : true,
            "name" : "Female_child:Body:Defaultskin.001",
            "pbrMetallicRoughness" : {
                "baseColorFactor" : [
                    0.4564109146595001,
                    0.187820702791214,
                    0.016807429492473602,
                    1
                ],
                "metallicFactor" : 0.5,
                "roughnessFactor" : 0.5
            }
        },
        {
            "doubleSided" : true,
            "name" : "Female_old:Body:Defaultskin.001",
            "pbrMetallicRoughness" : {
                "baseColorFactor" : [
                    0.4564109146595001,
                    0.187820702791214,
                    0.016807429492473602,
                    1
                ],
                "metallicFactor" : 0,
                "roughnessFactor" : 0.5
            }
        }
    ],
    "meshes" : [
        {
            "name" : "Knife_Block_Small.001",
            "primitives" : [
                {
                    "attributes" : {
                        "POSITION" : 0,
                        "NORMAL" : 1
                    },
                    "indices" : 2,
                    "material" : 0
                }
            ]
        },
        {
            "name" : "Male_young:Body.001",
            "primitives" : [
                {
                    "attributes" : {
                        "POSITION" : 3,
                        "NORMAL" : 4,
                        "TEXCOORD_0" : 5
                    },
                    "indices" : 6,
                    "material" : 1
                }
            ]
        },
        {
            "name" : "Female_child:Body.001",
            "primitives" : [
                {
                    "attributes" : {
                        "POSITION" : 7,
                        "NORMAL" : 8,
                        "TEXCOORD_0" : 9
                    },
                    "indices" : 10,
                    "material" : 2
                }
            ]
        },
        {
            "name" : "Female_old:Body.001",
            "primitives" : [
                {
                    "attributes" : {
                        "POSITION" : 11,
                        "NORMAL" : 12,
                        "TEXCOORD_0" : 13
                    },
                    "indices" : 14,
                    "material" : 3
                }
            ]
        }
    ],
    "accessors" : [
        {
            "bufferView" : 0,
            "componentType" : 5126,
            "count" : 9219,
            "max" : [
                200,
                135,
                -29.95210838317871
            ],
            "min" : [
                50,
                0,
                -180.04708862304688
            ],
            "type" : "VEC3"
        },
        {
            "bufferView" : 1,
            "componentType" : 5126,
            "count" : 9219,
            "type" : "VEC3"
        },
        {
            "bufferView" : 2,
            "componentType" : 5123,
            "count" : 12468,
            "type" : "SCALAR"
        },
        {
            "bufferView" : 3,
            "componentType" : 5126,
            "count" : 18311,
            "max" : [
                3.9011709690093994,
                1.524580955505371,
                0.01930898055434227
            ],
            "min" : [
                -0.7331740260124207,
                -4.425343990325928,
                -16.421918869018555
            ],
            "type" : "VEC3"
        },
        {
            "bufferView" : 4,
            "componentType" : 5126,
            "count" : 18311,
            "type" : "VEC3"
        },
        {
            "bufferView" : 5,
            "componentType" : 5126,
            "count" : 18311,
            "type" : "VEC2"
        },
        {
            "bufferView" : 6,
            "componentType" : 5123,
            "count" : 98904,
            "type" : "SCALAR"
        },
        {
            "bufferView" : 7,
            "componentType" : 5126,
            "count" : 25786,
            "max" : [
                1.4091440439224243,
                3.776503086090088,
                -0.2983590066432953
            ],
            "min" : [
                -3.114135980606079,
                -0.3952440023422241,
                -10.901040077209473
            ],
            "type" : "VEC3"
        },
        {
            "bufferView" : 8,
            "componentType" : 5126,
            "count" : 25786,
            "type" : "VEC3"
        },
        {
            "bufferView" : 9,
            "componentType" : 5126,
            "count" : 25786,
            "type" : "VEC2"
        },
        {
            "bufferView" : 10,
            "componentType" : 5123,
            "count" : 136434,
            "type" : "SCALAR"
        },
        {
            "bufferView" : 11,
            "componentType" : 5126,
            "count" : 21422,
            "max" : [
                3.039491891860962,
                -1.6480900049209595,
                -0.03241293877363205
            ],
            "min" : [
                -2.5644938945770264,
                -6.114619731903076,
                -13.987409591674805
            ],
            "type" : "VEC3"
        },
        {
            "bufferView" : 12,
            "componentType" : 5126,
            "count" : 21422,
            "type" : "VEC3"
        },
        {
            "bufferView" : 13,
            "componentType" : 5126,
            "count" : 21422,
            "type" : "VEC2"
        },
        {
            "bufferView" : 14,
            "componentType" : 5123,
            "count" : 116778,
            "type" : "SCALAR"
        }
    ],
    "bufferViews" : [
        {
            "buffer" : 0,
            "byteLength" : 110628,
            "byteOffset" : 0
        },
        {
            "buffer" : 0,
            "byteLength" : 110628,
            "byteOffset" : 110628
        },
        {
            "buffer" : 0,
            "byteLength" : 24936,
            "byteOffset" : 221256
        },
        {
            "buffer" : 0,
            "byteLength" : 219732,
            "byteOffset" : 246192
        },
        {
            "buffer" : 0,
            "byteLength" : 219732,
            "byteOffset" : 465924
        },
        {
            "buffer" : 0,
            "byteLength" : 146488,
            "byteOffset" : 685656
        },
        {
            "buffer" : 0,
            "byteLength" : 197808,
            "byteOffset" : 832144
        },
        {
            "buffer" : 0,
            "byteLength" : 309432,
            "byteOffset" : 1029952
        },
        {
            "buffer" : 0,
            "byteLength" : 309432,
            "byteOffset" : 1339384
        },
        {
            "buffer" : 0,
            "byteLength" : 206288,
            "byteOffset" : 1648816
        },
        {
            "buffer" : 0,
            "byteLength" : 272868,
            "byteOffset" : 1855104
        },
        {
            "buffer" : 0,
            "byteLength" : 257064,
            "byteOffset" : 2127972
        },
        {
            "buffer" : 0,
            "byteLength" : 257064,
            "byteOffset" : 2385036
        },
        {
            "buffer" : 0,
            "byteLength" : 171376,
            "byteOffset" : 2642100
        },
        {
            "buffer" : 0,
            "byteLength" : 233556,
            "byteOffset" : 2813476
        }
    ],
    "buffers" : [
        {
            "byteLength" : 3047032,
            "uri" : "data:application/octet-stream;base64,"
        }
    ]
}
